<svg xmlns="http://www.w3.org/2000/svg" width="20" height="23" viewBox="0 0 20 23">
  <path fill="#273776" fill-rule="evenodd" d="M18.2402344,153.375 C18.8131539,153.375 19.3001282,153.575519 19.7011719,153.976562 C20.1022155,154.377606 20.3027344,154.86458 20.3027344,155.4375 L20.3027344,173.3125 C20.3027344,173.88542 20.1022155,174.372394 19.7011719,174.773438 C19.3001282,175.174481 18.8131539,175.375 18.2402344,175.375 L4.51171875,175.375 C4.16796703,175.375 3.84928532,175.27116 3.55566406,175.063477 C3.2620428,174.855793 3.11523438,174.501305 3.11523438,174 L3.11523438,171.228516 L2.40625,171.228516 C2.23437414,171.228516 2.08040433,171.160482 1.94433594,171.024414 C1.80826755,170.888346 1.74023438,170.727214 1.74023438,170.541016 C1.74023438,170.483724 1.74739576,170.426433 1.76171875,170.369141 C1.77604174,170.311849 1.7975259,170.258138 1.82617188,170.208008 C1.85481785,170.157877 1.89062479,170.111328 1.93359375,170.068359 C1.97656271,170.02539 2.02311173,169.989583 2.07324219,169.960938 C2.12337265,169.932292 2.17708305,169.910807 2.234375,169.896484 C2.29166695,169.882161 2.34895805,169.875 2.40625,169.875 L3.11523438,169.875 L3.11523438,167.125 L2.40625,167.125 C2.23437414,167.125 2.08040433,167.056967 1.94433594,166.920898 C1.80826755,166.78483 1.74023438,166.623699 1.74023438,166.4375 C1.74023438,166.351562 1.75813784,166.265625 1.79394531,166.179688 C1.82975278,166.09375 1.87988249,166.022136 1.94433594,165.964844 C2.00878938,165.907552 2.08040325,165.861003 2.15917969,165.825195 C2.23795612,165.789388 2.32031207,165.771484 2.40625,165.771484 L3.11523438,165.771484 L3.11523438,162.978516 L2.42773438,162.978516 C2.24153553,162.978516 2.08398502,162.914063 1.95507812,162.785156 C1.82617123,162.656249 1.76171875,162.498699 1.76171875,162.3125 C1.76171875,162.197916 1.7903643,162.086915 1.84765625,161.979492 C1.9049482,161.87207 1.98730415,161.789714 2.09472656,161.732422 C2.20214897,161.67513 2.31315047,161.646484 2.42773438,161.646484 L3.11523438,161.646484 L3.11523438,158.875 L2.36328125,158.875 C2.24869734,158.875 2.13769585,158.846354 2.03027344,158.789062 C1.92285103,158.731771 1.84049508,158.649415 1.78320312,158.541992 C1.72591117,158.43457 1.69726562,158.323568 1.69726562,158.208984 C1.69726562,158.022786 1.76171811,157.861654 1.890625,157.725586 C2.01953189,157.589518 2.1770824,157.521484 2.36328125,157.521484 L3.11523438,157.521484 L3.11523438,154.792969 C3.11523438,154.549478 3.16178339,154.323894 3.25488281,154.116211 C3.34798224,153.908528 3.50553274,153.733074 3.72753906,153.589844 C3.94954538,153.446614 4.21809738,153.375 4.53320312,153.375 L18.2402344,153.375 Z M4.49023438,174 L15.4902344,174 L15.4902344,154.75 L4.49023438,154.75 L4.49023438,157.521484 L5.15625,157.521484 C5.34244885,157.521484 5.49999936,157.589518 5.62890625,157.725586 C5.75781314,157.861654 5.82226562,158.022786 5.82226562,158.208984 C5.82226562,158.395183 5.75781314,158.552734 5.62890625,158.681641 C5.49999936,158.810548 5.34244885,158.875 5.15625,158.875 L4.49023438,158.875 L4.49023438,161.646484 L5.22070312,161.646484 C5.32096404,161.646484 5.41048138,161.664388 5.48925781,161.700195 C5.56803425,161.736003 5.63964812,161.782552 5.70410156,161.839844 C5.76855501,161.897136 5.81510402,161.96875 5.84375,162.054688 C5.87239598,162.140625 5.88671875,162.226562 5.88671875,162.3125 C5.88671875,162.441407 5.8580732,162.555989 5.80078125,162.65625 C5.7434893,162.756511 5.66471404,162.835286 5.56445312,162.892578 C5.46419221,162.94987 5.34961002,162.978516 5.22070312,162.978516 L4.49023438,162.978516 L4.49023438,165.771484 L5.19921875,165.771484 C5.3854176,165.771484 5.5465488,165.835937 5.68261719,165.964844 C5.81868558,166.093751 5.88671875,166.251301 5.88671875,166.4375 C5.88671875,166.566407 5.85449251,166.680989 5.79003906,166.78125 C5.72558562,166.881511 5.64322967,166.963867 5.54296875,167.02832 C5.44270783,167.092774 5.32812564,167.125 5.19921875,167.125 L4.49023438,167.125 L4.49023438,169.875 L5.19921875,169.875 C5.29947967,169.875 5.388997,169.892903 5.46777344,169.928711 C5.54654987,169.964518 5.61816374,170.011067 5.68261719,170.068359 C5.74707063,170.125651 5.79720034,170.197265 5.83300781,170.283203 C5.86881528,170.369141 5.88671875,170.455078 5.88671875,170.541016 C5.88671875,170.727214 5.81868558,170.888346 5.68261719,171.024414 C5.5465488,171.160482 5.3854176,171.228516 5.19921875,171.228516 L4.49023438,171.228516 L4.49023438,174 Z M18.9277344,173.3125 L18.9277344,155.4375 C18.9277344,155.251301 18.8597012,155.09017 18.7236328,154.954102 C18.5875644,154.818033 18.4264332,154.75 18.2402344,154.75 L16.8652344,154.75 L16.8652344,174 L18.2402344,174 C18.4264332,174 18.5875644,173.931967 18.7236328,173.795898 C18.8597012,173.65983 18.9277344,173.498699 18.9277344,173.3125 Z" transform="translate(-1 -153)"/>
</svg>
